<?xml version="1.0" standalone="no"?>
<!DOCTYPE svg PUBLIC "-//W3C//DTD SVG 20010904//EN"
 "http://www.w3.org/TR/2001/REC-SVG-20010904/DTD/svg10.dtd">
<svg version="1.0" xmlns="http://www.w3.org/2000/svg"
 width="1440.000000pt" height="1024.000000pt" viewBox="0 0 1440.000000 1024.000000"
 preserveAspectRatio="xMidYMid meet">
<metadata>
Created by potrace 1.16, written by Peter Selinger 2001-2019
</metadata>
<g transform="translate(0.000000,1024.000000) scale(0.100000,-0.100000)"
fill="#000000" stroke="none">
<path d="M0 5120 l0 -5120 7200 0 7200 0 0 5120 0 5120 -7200 0 -7200 0 0
-5120z m9833 -797 l-153 -4 0 -104 0 -105 143 -2 142 -2 -142 -3 -143 -4 0
-114 0 -115 153 0 153 0 55 73 c31 39 58 77 62 83 4 6 -8 31 -26 55 -18 24
-46 61 -61 82 -16 20 -24 37 -19 37 5 0 34 -34 64 -75 29 -41 57 -75 60 -75 4
0 83 102 111 144 4 6 9 8 13 5 3 -3 -10 -26 -28 -50 -18 -24 -45 -60 -60 -79
l-26 -36 64 -84 c36 -46 62 -86 60 -89 -6 -5 -9 -2 -79 93 -28 36 -52 66 -55
66 -3 0 -33 -36 -66 -80 l-60 -80 -167 0 -168 0 0 235 0 235 163 -2 162 -2
-152 -3z m670 -128 c18 -8 43 -32 57 -52 21 -31 25 -48 25 -112 0 -62 -4 -83
-23 -112 -49 -80 -158 -92 -219 -25 l-33 36 0 -90 c0 -53 -4 -90 -10 -90 -6 0
-10 82 -10 225 0 143 4 225 10 225 6 0 10 -19 10 -42 l1 -43 15 28 c16 30 83
66 122 67 13 0 38 -7 55 -15z m537 -15 c35 -25 60 -77 60 -124 l0 -36 -140 0
-140 0 0 -25 c0 -44 38 -105 75 -121 45 -19 71 -17 122 5 31 14 44 28 54 55 7
20 16 36 20 36 16 0 -13 -58 -41 -85 -38 -37 -118 -45 -169 -18 -75 39 -101
173 -52 260 45 79 141 103 211 53z m-458 -716 c22 -16 47 -33 54 -39 9 -7 21
-2 41 17 68 63 147 77 183 31 18 -23 20 -38 18 -107 l-3 -81 65 -32 c66 -32
100 -70 100 -112 0 -28 -63 -87 -115 -107 l-43 -16 1 -79 c2 -98 -18 -132 -80
-137 -32 -2 -50 4 -102 39 l-62 41 -22 -20 c-12 -11 -41 -29 -64 -41 -106 -53
-163 -3 -149 134 l6 61 -55 23 c-106 44 -136 121 -71 179 19 16 55 37 80 47
l46 18 -6 62 c-7 69 7 128 34 145 29 18 99 5 144 -26z m-440 -751 l3 -88 68
-3 67 -3 0 -289 0 -290 -300 0 -300 0 0 380 0 380 230 0 229 0 3 -87z m654
-745 c80 -44 152 -87 160 -95 19 -19 21 -351 2 -375 -17 -22 -298 -178 -321
-178 -9 0 -42 14 -73 31 -40 23 -52 34 -42 40 21 14 48 10 82 -10 l32 -20 139
78 140 78 3 165 2 165 -134 77 c-73 42 -140 76 -147 76 -8 0 -75 -35 -149 -77
l-135 -78 -3 -161 -2 -161 50 -27 c28 -15 60 -26 73 -24 22 3 22 5 25 176 l2
172 25 0 25 0 0 -164 c0 -91 -4 -176 -10 -190 -6 -17 -21 -28 -46 -35 -33 -9
-46 -7 -95 15 -93 42 -90 34 -87 245 l3 184 155 87 c85 48 161 88 168 88 7 0
79 -37 158 -82z m-32 -148 c43 -9 70 -33 81 -67 9 -32 -26 -31 -59 2 -19 19
-36 25 -69 25 -75 0 -107 -51 -40 -64 15 -3 53 -10 84 -16 69 -13 87 -26 95
-67 18 -93 -169 -141 -248 -63 -15 16 -28 36 -28 45 0 25 31 31 46 9 28 -41
36 -44 94 -44 40 0 64 5 74 16 33 33 12 50 -76 63 -97 14 -128 33 -128 81 0
68 76 103 174 80z m517 -740 c39 -11 63 -33 73 -67 6 -20 4 -23 -18 -23 -19 0
-26 5 -26 19 0 34 -38 51 -112 51 -55 0 -72 -4 -88 -20 -50 -50 -15 -83 110
-106 104 -19 150 -49 150 -97 0 -34 -34 -74 -77 -88 -45 -15 -158 -7 -199 14
-46 24 -74 97 -36 97 9 0 24 -15 32 -33 20 -42 52 -57 126 -57 82 0 109 22
105 82 -1 24 -28 36 -123 54 -45 8 -94 22 -110 30 -55 28 -48 106 12 136 39
20 125 24 181 8z m394 -1 c115 -32 160 -177 84 -273 l-19 -24 27 -20 c22 -16
25 -23 16 -33 -9 -9 -19 -7 -44 8 -26 17 -38 19 -67 11 -53 -15 -151 -6 -197
18 -80 41 -113 135 -77 215 10 24 28 52 39 61 48 43 156 59 238 37z m-2160 -9
c31 -12 58 -69 49 -105 -3 -14 -20 -36 -36 -50 -27 -23 -38 -25 -129 -25 l-99
0 0 -70 c0 -63 -2 -70 -20 -70 -19 0 -20 7 -20 165 l0 165 114 0 c63 0 126 -4
141 -10z m2355 -140 l0 -150 120 0 c100 0 120 -2 120 -15 0 -13 -22 -15 -140
-15 l-140 0 0 165 c0 158 1 165 20 165 19 0 20 -7 20 -150z m-2070 15 c26 -24
43 -78 35 -115 -14 -65 -113 -106 -195 -81 -116 34 -104 200 16 220 53 9 120
-2 144 -24z m267 10 c26 -17 31 -55 8 -55 -8 0 -15 4 -15 9 0 25 -34 41 -84
41 -57 0 -80 -15 -74 -47 3 -17 14 -21 131 -37 57 -9 83 -38 68 -78 -27 -70
-241 -59 -241 12 0 25 27 26 35 2 16 -51 153 -56 172 -6 10 26 -18 42 -95 53
-95 13 -132 44 -103 89 25 40 147 50 198 17z m421 -2 c19 -12 23 -12 28 2 3 8
12 15 20 15 11 0 14 -24 14 -123 0 -166 -17 -189 -142 -188 -74 0 -117 22
-118 59 0 19 17 14 44 -13 21 -21 35 -25 79 -25 66 0 93 19 103 73 7 39 -4 48
-26 22 -20 -24 -95 -30 -146 -10 -109 42 -89 187 29 205 49 8 83 3 115 -17z
m456 7 c28 -10 66 -64 66 -92 0 -16 -12 -18 -120 -18 -110 0 -120 -2 -120 -18
0 -10 11 -29 25 -42 20 -19 37 -24 77 -24 43 0 54 4 74 27 23 27 54 36 54 17
0 -23 -54 -59 -97 -66 -56 -8 -112 8 -144 42 -19 20 -24 36 -24 76 0 43 4 53
33 79 28 25 40 29 92 29 32 0 70 -4 84 -10z"/>
<path d="M10378 4174 c-65 -34 -90 -167 -47 -243 25 -45 47 -60 102 -67 63 -9
106 24 131 99 16 51 17 65 7 112 -22 98 -112 144 -193 99z"/>
<path d="M10888 4174 c-30 -16 -68 -80 -68 -114 0 -19 6 -20 135 -20 113 0
135 2 135 15 0 32 -34 96 -60 115 -34 24 -102 26 -142 4z"/>
<path d="M10446 3449 c-17 -24 -21 -74 -10 -128 7 -31 7 -31 58 -25 43 5 57
13 88 48 20 22 37 44 38 48 0 14 -91 69 -124 75 -27 4 -36 1 -50 -18z"/>
<path d="M10728 3441 c-25 -16 -49 -34 -53 -40 -4 -7 9 -31 29 -55 30 -37 42
-44 83 -49 26 -3 52 -2 56 2 13 12 11 125 -2 149 -16 31 -57 28 -113 -7z"/>
<path d="M10540 3233 c-46 -73 -47 -86 -8 -151 l34 -57 76 -3 77 -3 36 65 c40
72 40 66 -14 153 l-26 43 -72 0 -73 0 -30 -47z m150 -33 c39 -39 18 -105 -36
-116 -42 -8 -77 22 -77 66 0 61 71 92 113 50z"/>
<path d="M10355 3226 c-61 -28 -77 -46 -73 -82 4 -34 69 -83 112 -87 26 -2 31
3 49 46 20 47 20 47 -1 94 -11 26 -24 49 -29 50 -4 2 -30 -8 -58 -21z"/>
<path d="M10845 3200 c-16 -48 -16 -53 1 -100 10 -28 22 -50 26 -50 40 0 138
71 138 100 0 29 -99 100 -140 100 -5 0 -16 -23 -25 -50z"/>
<path d="M10436 2979 c-18 -90 3 -149 53 -149 25 0 112 47 125 68 3 5 -9 28
-26 50 -25 32 -40 42 -72 47 -23 4 -48 8 -57 11 -12 3 -18 -4 -23 -27z"/>
<path d="M10780 2999 c-33 -7 -53 -18 -77 -46 -18 -21 -31 -42 -29 -48 5 -19
99 -75 126 -75 31 0 44 13 54 53 9 37 -4 127 -18 126 -6 -1 -31 -5 -56 -10z"/>
<path d="M10043 2512 c-41 -13 -63 -40 -63 -76 0 -40 24 -62 80 -72 47 -9 64
-22 49 -40 -15 -18 -51 -18 -94 0 l-35 15 0 -29 c0 -36 24 -45 107 -38 67 6
96 32 91 82 -3 32 -32 52 -103 73 -16 5 -30 15 -30 23 0 22 70 25 101 5 24
-15 24 -15 24 14 0 16 -3 32 -7 34 -16 10 -99 16 -120 9z"/>
<path d="M9810 2490 c0 -16 7 -20 30 -20 l30 0 0 -64 c0 -76 -17 -101 -62 -92
-25 5 -28 3 -28 -19 0 -23 4 -25 49 -25 34 0 56 6 75 21 25 20 26 24 26 120
l0 99 -60 0 c-53 0 -60 -2 -60 -20z"/>
<path d="M11493 1040 c-46 -28 -67 -65 -67 -119 1 -96 63 -150 174 -151 91 0
145 45 155 131 7 55 -16 104 -64 136 -46 31 -150 32 -198 3z"/>
<path d="M9300 985 l0 -65 94 0 c116 0 133 11 126 85 -3 36 -29 45 -127 45
l-93 0 0 -65z"/>
<path d="M9633 931 c-36 -23 -49 -64 -33 -106 16 -42 39 -54 101 -55 68 0 99
25 99 82 0 50 -8 66 -41 83 -39 20 -88 19 -126 -4z"/>
<path d="M10355 939 c-52 -30 -62 -93 -20 -134 34 -35 121 -36 153 -2 29 31
30 97 2 122 -24 22 -107 30 -135 14z"/>
</g>
</svg>
