<?xml version="1.0" standalone="no"?>
<!DOCTYPE svg PUBLIC "-//W3C//DTD SVG 20010904//EN"
 "http://www.w3.org/TR/2001/REC-SVG-20010904/DTD/svg10.dtd">
<svg version="1.0" xmlns="http://www.w3.org/2000/svg"
 width="1024.000000pt" height="768.000000pt" viewBox="0 0 1024.000000 768.000000"
 preserveAspectRatio="xMidYMid meet">

<g transform="translate(0.000000,768.000000) scale(0.100000,-0.100000)"
fill="#000000" stroke="none">
<path d="M0 3840 l0 -3840 5120 0 5120 0 0 3840 0 3840 -5120 0 -5120 0 0
-3840z m5506 954 l29 -24 -40 20 c-22 10 -53 31 -70 45 l-30 26 41 -21 c23
-12 55 -33 70 -46z m119 32 c11 -8 16 -15 10 -16 -5 0 -23 12 -40 26 -31 26
-6 18 30 -10z m-710 -16 c-3 -5 -12 -10 -18 -10 -7 0 -6 4 3 10 19 12 23 12
15 0z m1071 -218 c-5 -4 -125 68 -132 79 -3 5 26 -10 65 -33 38 -23 69 -44 67
-46z m-788 13 c17 0 32 -4 32 -9 0 -5 3 -6 7 -3 3 4 12 -1 20 -11 8 -9 12 -11
8 -4 -9 17 -2 15 39 -9 20 -12 33 -25 30 -30 -3 -5 4 -9 16 -9 12 0 18 -5 15
-10 -9 -14 4 -52 15 -45 5 3 7 -5 4 -18 -6 -36 29 -61 90 -66 5 -1 7 -4 3 -7
-3 -4 1 -13 9 -21 12 -12 12 -18 2 -31 -11 -13 -10 -15 9 -10 13 4 26 2 29 -3
3 -5 -2 -9 -11 -9 -16 0 -29 -24 -39 -72 -5 -20 -11 -26 -24 -22 -16 5 -16 5
1 -9 16 -14 25 -43 10 -34 -5 3 -14 -1 -21 -9 -11 -12 -8 -14 14 -14 20 0 24
-3 16 -12 -13 -16 -13 -30 -1 -45 7 -7 6 -13 0 -17 -6 -4 -7 -14 -4 -24 5 -14
2 -13 -11 3 -10 11 -14 13 -10 5 7 -13 5 -13 -9 -1 -9 7 -17 11 -17 8 0 -3 -3
-12 -6 -21 -5 -12 1 -16 24 -16 36 0 51 -15 22 -23 -11 -3 -20 -12 -20 -21 0
-9 -4 -16 -10 -16 -5 0 -10 6 -10 14 0 8 -11 17 -25 20 -14 4 -25 13 -25 22 0
8 -4 12 -10 9 -5 -3 -26 5 -47 19 -21 14 -75 34 -119 46 -73 18 -92 20 -170
10 -135 -16 -217 -45 -269 -96 -24 -23 -47 -54 -51 -68 -20 -81 42 -161 153
-197 114 -36 292 -38 377 -3 14 5 17 4 12 -4 -5 -8 -2 -10 8 -6 9 3 14 9 12
13 -2 3 11 6 29 6 28 1 32 -2 22 -13 -9 -11 -7 -17 7 -27 16 -12 18 -30 19
-144 0 -72 4 -128 8 -126 14 9 16 -20 2 -36 -12 -15 -11 -16 11 -14 14 2 26
-2 28 -8 8 -22 3 -57 -7 -57 -5 -1 -19 -9 -30 -19 -19 -18 -153 -101 -162
-101 -2 0 -40 -18 -84 -40 -44 -22 -95 -40 -112 -40 -38 0 -98 30 -227 114
-52 35 -185 118 -295 186 -110 68 -216 137 -235 153 -19 16 -114 81 -210 144
-200 132 -220 148 -220 179 0 57 31 81 284 209 100 51 255 132 346 180 91 49
230 122 310 163 80 40 164 85 188 99 74 42 142 63 187 55 22 -3 55 -6 73 -7z
m1327 -343 c-5 -5 -95 47 -95 54 0 3 22 -7 49 -23 28 -15 48 -29 46 -31z m176
-105 c13 -10 2 -6 -26 9 -27 15 -57 34 -65 42 -16 16 52 -22 91 -51z m2219 58
c0 -2 -10 -9 -22 -15 -22 -11 -22 -10 -4 4 21 17 26 19 26 11z m-2070 -151 c0
-2 -13 2 -30 11 -16 9 -30 18 -30 21 0 2 14 -2 30 -11 17 -9 30 -18 30 -21z
m-1601 -44 c81 -55 96 -128 36 -178 -49 -40 -128 -57 -265 -57 -102 1 -121 3
-171 26 -40 19 -60 35 -71 59 -16 32 -15 35 9 67 14 18 31 33 38 33 7 0 15 9
18 21 3 12 10 18 15 15 5 -3 21 3 34 13 39 31 86 40 199 38 104 -2 108 -3 158
-37z m225 -35 c-4 -8 -10 -15 -15 -15 -5 0 -9 7 -9 15 0 8 7 15 15 15 9 0 12
-6 9 -15z m-1842 -177 c-7 -7 -20 -7 -39 1 -19 8 -21 10 -6 7 13 -2 26 0 29 5
3 5 10 6 16 3 6 -4 6 -10 0 -16z m3148 7 c0 -6 -56 -35 -67 -35 -4 1 8 9 27
20 39 22 40 22 40 15z m-3546 -64 c19 -7 19 -8 -1 -13 -14 -4 -24 0 -27 8 -6
15 -1 16 28 5z m4236 -68 c0 -2 -18 10 -40 27 -22 17 -40 34 -40 37 0 2 18
-10 40 -27 22 -17 40 -34 40 -37z m-3677 -182 c7 -8 -7 -2 -30 14 -24 15 -43
30 -43 32 0 7 61 -31 73 -46z m3997 3 c0 -2 -9 0 -20 6 -11 6 -20 13 -20 16 0
2 9 0 20 -6 11 -6 20 -13 20 -16z m-2423 -13 c0 -11 -5 -18 -9 -15 -4 3 -5 11
-1 19 7 21 12 19 10 -4z m2068 -1 c-3 -5 -12 -10 -18 -10 -7 0 -6 4 3 10 19
12 23 12 15 0z m1243 -27 c-10 -2 -26 -2 -35 0 -10 3 -2 5 17 5 19 0 27 -2 18
-5z m-5243 -12 c3 -5 2 -12 -3 -15 -5 -3 -9 1 -9 9 0 17 3 19 12 6z m4045 -66
c0 -5 -5 -3 -10 5 -5 8 -10 20 -10 25 0 6 5 3 10 -5 5 -8 10 -19 10 -25z
m-3420 -72 c0 -8 -74 39 -95 60 -11 10 6 2 38 -18 31 -21 57 -40 57 -42z
m4830 51 c0 -2 -9 0 -20 6 -11 6 -20 13 -20 16 0 2 9 0 20 -6 11 -6 20 -13 20
-16z m-3100 -59 c0 -2 -10 -9 -22 -15 -22 -11 -22 -10 -4 4 21 17 26 19 26 11z
m-3800 -40 c13 -14 21 -25 18 -25 -2 0 -15 11 -28 25 -13 14 -21 25 -18 25 2
0 15 -11 28 -25z m595 -64 c79 -65 144 -124 115 -104 -28 19 -220 176 -220
180 0 7 23 -10 105 -76z m3144 66 c-16 -13 -79 -48 -79 -44 0 7 63 47 74 47 5
0 7 -1 5 -3z m1309 -9 c-3 -7 -13 -15 -24 -17 -16 -3 -17 -1 -5 13 16 19 34
21 29 4z m-2815 -61 l32 -28 -30 16 c-16 9 -46 30 -65 47 l-35 30 33 -19 c19
-10 48 -31 65 -46z m4067 2 l25 -20 -32 16 c-18 8 -33 18 -33 20 0 10 16 4 40
-16z m-6179 -36 c13 -16 12 -17 -3 -4 -17 13 -22 21 -14 21 2 0 10 -8 17 -17z
m1739 -29 c0 -3 -13 4 -30 16 -16 12 -30 24 -30 26 0 3 14 -4 30 -16 17 -12
30 -24 30 -26z m1710 42 c0 -8 -111 -68 -116 -64 -2 3 22 19 53 36 62 34 63
34 63 28z m-3060 -153 c0 -3 -27 18 -60 47 -33 29 -60 54 -60 57 0 3 27 -18
60 -47 33 -29 60 -54 60 -57z m4265 62 c-39 -24 -55 -30 -55 -20 0 6 72 44 85
44 6 0 -8 -11 -30 -24z m-4525 -30 c13 -14 21 -25 18 -25 -2 0 -15 11 -28 25
-13 14 -21 25 -18 25 2 0 15 -11 28 -25z m565 -36 c20 -22 20 -22 0 -11 -11 5
-29 20 -40 33 -20 22 -20 22 0 11 11 -5 29 -20 40 -33z m2520 21 c-3 -5 -12
-10 -18 -10 -7 0 -6 4 3 10 19 12 23 12 15 0z m1355 -4 c0 -2 -7 -7 -16 -10
-8 -3 -12 -2 -9 4 6 10 25 14 25 6z m-1390 -10 c0 -3 -4 -8 -10 -11 -5 -3 -10
-1 -10 4 0 6 5 11 10 11 6 0 10 -2 10 -4z m1320 -35 c-19 -16 -39 -27 -43 -24
-5 3 9 16 30 29 51 31 55 30 13 -5z m-2125 -21 c3 -5 2 -10 -4 -10 -5 0 -13 5
-16 10 -3 6 -2 10 4 10 5 0 13 -4 16 -10z m2050 -27 c-11 -7 -23 -13 -28 -13
-5 0 -7 -7 -4 -14 4 -10 1 -13 -7 -10 -7 3 -25 0 -40 -6 -41 -15 -23 3 28 29
25 12 46 27 46 32 0 6 5 7 12 3 7 -5 5 -11 -7 -21z m-5328 11 c-3 -3 -12 -4
-19 -1 -8 3 -5 6 6 6 11 1 17 -2 13 -5z m3496 -14 c15 -12 56 -38 92 -59 37
-22 61 -42 56 -46 -9 -5 -144 80 -185 117 -21 18 12 7 37 -12z m1142 -40 c3
-6 -1 -7 -9 -4 -18 7 -21 14 -7 14 6 0 13 -4 16 -10z m-1205 -40 c8 -5 11 -10
5 -10 -5 0 -17 5 -25 10 -8 5 -10 10 -5 10 6 0 17 -5 25 -10z m373 -5 c-6 -17
-25 -15 -31 3 -2 7 5 12 17 12 14 0 19 -5 14 -15z m1337 -10 c-33 -19 -46 -19
-30 0 7 8 22 15 34 15 20 -1 20 -2 -4 -15z m-135 -85 c-3 -5 -13 -10 -21 -10
-8 0 -14 5 -14 10 0 6 9 10 21 10 11 0 17 -4 14 -10z m-97 -49 c10 -6 4 -14
-23 -30 -39 -23 -55 -26 -55 -12 0 14 28 33 40 26 6 -4 10 -3 9 2 -4 24 6 29
29 14z m-628 -5 c0 -2 -7 -7 -16 -10 -8 -3 -12 -2 -9 4 6 10 25 14 25 6z m371
-131 c-46 -25 -85 -44 -87 -43 -5 6 141 88 156 88 8 0 -23 -21 -69 -45z"/>
<path d="M5465 4290 c3 -5 8 -10 11 -10 2 0 4 5 4 10 0 6 -5 10 -11 10 -5 0
-7 -4 -4 -10z"/>
<path d="M5045 4043 c-39 -5 -95 -34 -95 -50 0 -19 63 -62 101 -69 19 -3 44
-10 56 -16 18 -9 32 -7 63 7 22 10 40 21 40 25 0 4 -20 21 -45 39 -46 33 -66
55 -42 45 8 -3 14 2 14 11 0 15 -22 17 -92 8z m65 -69 c12 -12 9 -14 -23 -14
-20 0 -37 5 -37 10 0 6 6 10 13 10 8 0 7 4 -3 11 -11 8 -9 9 10 4 14 -4 32
-13 40 -21z"/>
<path d="M4862 3880 c-15 -6 -22 -17 -20 -27 4 -21 56 -42 66 -27 10 14 54 44
66 44 5 0 2 -8 -7 -18 -10 -10 -17 -22 -17 -25 0 -8 84 -7 125 2 34 7 45 35
18 46 -29 11 -206 15 -231 5z m187 -46 c14 -12 -19 -1 -35 12 -18 14 -18 14 6
3 14 -6 27 -13 29 -15z"/>
<path d="M6055 2680 c-3 -5 -1 -10 4 -10 6 0 11 5 11 10 0 6 -2 10 -4 10 -3 0
-8 -4 -11 -10z"/>
</g>
</svg>
